<?xml version="1.0" encoding="utf-8"?>
<!-- Generator: Adobe Illustrator 25.4.1, SVG Export Plug-In . SVG Version: 6.00 Build 0)  -->
<svg version="1.1" id="Layer_1" xmlns="http://www.w3.org/2000/svg" xmlns:xlink="http://www.w3.org/1999/xlink" x="0px" y="0px"
	 viewBox="0 0 3827.8 2010.4" style="enable-background:new 0 0 3827.8 2010.4;" xml:space="preserve">
<style type="text/css">
	.st0{fill:#38D200;}
	.st1{fill:#0473EA;}
	.st2{fill:#525355;}
</style>
<g id="Trustmark">
	<path class="st0" d="M989.8,1574.1l-491.3-319.9c0,0-61.6-35.4-75.7-101.4c-19.8-92.7,45.5-172.1,45.5-172.1l637.7,415.3
		c49.2,32.1,62.6,97.6,31,147.1C1104.4,1593.9,1037.7,1605.1,989.8,1574.1z"/>
	<path class="st1" d="M524.4,912.2c0,0-75.3-45.4-75.3-150.5c0-104.8,75.2-149.6,75.2-149.6L793,436.2c49.2-32,115.1-18,147.1,31.2
		s18,115.1-31.2,147.1L682.5,761.9l385.7,251.2c0,0,69.4,39.8,83.1,106.9c19.1,93.7-45.4,170.9-45.4,170.9L524.4,912.2z"/>
	<path class="st0" d="M1030,657.1c-25.2,0-43.2,8-60.7,19.3l-131.1,85.4l131.1,85.4c17.7,11.4,36.2,19.4,60.7,19.4
		c57.9,0.6,105.2-45.9,105.8-103.7c0.6-57.9-45.9-105.2-103.7-105.8C1031.4,657.1,1030.7,657.1,1030,657.1"/>
	<path class="st1" d="M523,1591.1c25.2,0,43.2-8,60.7-19.3l131.1-85.4l-131.1-85.4c-17.7-11.4-36.2-19.4-60.7-19.4
		c-57.9-0.6-105.2,45.9-105.8,103.7s45.9,105.2,103.7,105.8C521.6,1591.1,522.3,1591.1,523,1591.1"/>
	<path class="st2" d="M1575.5,1258.6c27.7,0,53.6-7.5,73.8-24.9v39c-22.6,15.5-49.3,22.1-77.6,22.1c-71,0-120.3-49.3-120.3-120.3
		c0-70.5,50.8-119.8,121.2-119.8c27.7,0,53.6,8,74.3,23.5v42.8c-18.3-19.7-43.7-30.1-71.9-30.1c-49.3,0-84.1,34.3-84.1,83.7
		S1526.2,1258.6,1575.5,1258.6z"/>
	<path class="st2" d="M1729.7,1290.5h-38.1V985.4l38.1,23.5v89.4c17.4-26.8,45.1-43.7,80.4-43.7c58.3,0,89.3,42.8,89.3,99.6v136.3
		h-38.5v-129.7c0-45.1-19.7-69.1-60.2-69.1c-42.8,0-71,36.7-71,82.7L1729.7,1290.5z"/>
	<path class="st2" d="M2135.7,1251c-19.3,27.3-48.9,43.7-85.1,43.7c-67.7,0-116.1-50.3-116.1-118.9c0-70,48.4-121.2,116.1-121.2
		c36.2,0,65.8,16.9,85.1,44.7v-40.4h38.5v231.7h-38.5V1251z M1974.1,1175.3c0,47.9,33.4,83.2,80.4,83.2c47.5,0,81.3-35.2,81.3-83.2
		c0-48.9-33.8-84.6-81.3-84.6C2007.4,1090.8,1974.1,1126.5,1974.1,1175.3L1974.1,1175.3z"/>
	<path class="st2" d="M2271.6,1290.5h-38.1v-231.7h38.1v49.3c18.3-34.3,47.9-53.6,84.6-53.6v43.7c-46.1-6.6-84.6,24.4-84.6,81.8
		V1290.5z"/>
	<path class="st2" d="M2746.2,1189.5h-182.8c5.6,41.8,38.5,69.6,84.6,69.6c29.6,0,58.3-8.5,82.7-25.8v36.7
		c-24.9,16.9-53.1,24.9-82.7,24.9c-72.9,0-125-47-125-118c0-69.6,44.2-122.2,114.2-122.2c66.7,0,110.4,49.3,110.4,115.6
		C2747.7,1176.6,2747.2,1183.1,2746.2,1189.5z M2563.9,1158.5h143.4c-3.8-39.5-28.7-68.6-69.6-68.6
		C2595.4,1089.8,2570,1119.4,2563.9,1158.5L2563.9,1158.5z"/>
	<path class="st2" d="M2827.6,1290.5h-38.1v-231.7h38.1v49.3c18.3-34.3,47.9-53.6,84.6-53.6v43.7c-46.1-6.6-84.6,24.4-84.6,81.8
		V1290.5z"/>
	<path class="st2" d="M3138.2,1189.5h-182.8c5.6,41.8,38.5,69.6,84.6,69.6c29.6,0,58.3-8.5,82.7-25.8v36.7
		c-24.9,16.9-53.1,24.9-82.7,24.9c-72.9,0-125-47-125-118c0-69.6,44.2-122.2,114.2-122.2c66.7,0,110.4,49.3,110.4,115.6
		C3139.7,1176.6,3139.2,1183.1,3138.2,1189.5z M2955.9,1158.5h143.3c-3.8-39.5-28.7-68.6-69.6-68.6
		C2987.4,1089.8,2962,1119.4,2955.9,1158.5L2955.9,1158.5z"/>
	<path class="st2" d="M3366.8,1250.7c-18.8,27.7-48.9,44.7-85.1,44.7c-67.7,0-116.1-50.3-116.1-118.9c0-70,48.4-121.3,116.1-121.3
		c36.2,0,66.3,17.4,85.1,45.6V985.4l38.5,23.5v281.5h-38.5V1250.7z M3205.1,1176c0,47.9,33.4,83.2,80.4,83.2
		c47.5,0,81.3-35.2,81.3-83.2c0-48.9-33.8-84.6-81.3-84.6C3238.4,1091.4,3205.1,1127.1,3205.1,1176z"/>
	<path class="st2" d="M2422.7,1213.5c0,32.4,19.7,45.1,44.6,45.1c19.3,0.2,38.3-5.7,54.1-16.9v37.1c-16,11.8-38.1,16.4-57.3,16.4
		c-49.4,0-79.4-22.1-79.4-84.6V985.3l38.1,23.5V1213.5z"/>
	<path class="st2" d="M2484.2,1055.8c-13.6-8.8-31.8-5-40.7,8.7c-8.8,13.6-5,31.8,8.7,40.7l0.8,0.5c9.7,6.2,22,6.2,31.7,0l37.9-24.3
		L2484.2,1055.8z"/>
	<path class="st2" d="M1530.9,924.4c27.2,0,47-11.8,47-32.9c0-12.7-6.6-22.6-24-29.6l-55-22.1c-28.2-12.2-43.7-28.2-43.7-58.3
		c0-40.4,32.4-65.8,79.4-65.8c27.2,0,52.6,7.5,70.5,21.2v40c-21.1-18.8-47-29.6-70-29.6c-24.4,0-41.8,11.3-41.8,30.1
		c0,14.1,6.6,22.6,24.9,29.6l55,22.1c29.6,12.7,43.2,30.5,43.2,55.5c0,44.2-35.7,71.4-86,71.4c-30.6,0-58.3-8.5-78.5-23.5V891
		C1476.3,914.1,1503.6,924.4,1530.9,924.4z"/>
	<path class="st2" d="M1688.8,874.1c0,32.4,19.7,45.1,44.7,45.1c19.3,0.2,38.2-5.7,54-16.9v37.1c-16,11.8-38.1,16.5-57.3,16.5
		c-49.3,0-79.4-22.1-79.4-84.6v-202l38.1-23.6L1688.8,874.1z"/>
	<path class="st2" d="M2000.4,912.2c-19.3,27.3-48.9,43.7-85.1,43.7c-67.7,0-116.1-50.3-116.1-118.9c0-70,48.4-121.3,116.1-121.3
		c36.2,0,65.8,16.9,85.1,44.7V720h38.5v231.7h-38.5V912.2z M1838.7,836.5c0,47.9,33.4,83.2,80.4,83.2c47.5,0,81.3-35.2,81.3-83.2
		c0-48.9-33.8-84.6-81.3-84.6C1872.1,751.9,1838.7,787.7,1838.7,836.5z"/>
	<path class="st2" d="M2136.2,951.7h-38.1V720h38.1v39.5c17.4-26.8,45.1-43.7,80.4-43.7c58.3,0,89.3,42.8,89.3,99.6v136.3h-38.5V822
		c0-45.1-19.7-69.1-60.2-69.1c-42.8,0-71,36.7-71,82.7L2136.2,951.7z"/>
	<path class="st2" d="M2542.3,911.3c-18.8,27.7-48.9,44.7-85.1,44.7c-67.7,0-116.1-50.3-116.1-118.9c0-70,48.4-121.3,116.1-121.3
		c36.2,0,66.3,17.4,85.1,45.6v-92l38.5-23.5v305.9h-38.5V911.3z M2380.6,836.5c0,47.9,33.4,83.2,80.4,83.2
		c47.5,0,81.3-35.2,81.3-83.2c0-48.9-33.8-84.6-81.3-84.6C2414,751.9,2380.6,787.7,2380.6,836.5z"/>
	<path class="st2" d="M3247.3,911.3c-18.8,27.7-48.9,44.7-85.1,44.7c-67.7,0-116.1-50.3-116.1-118.9c0-70,48.4-121.3,116.1-121.3
		c36.2,0,66.3,17.4,85.1,45.6v-92l38.5-23.5v305.9h-38.5V911.3z M3085.6,836.5c0,47.9,33.4,83.2,80.4,83.2
		c47.5,0,81.3-35.2,81.3-83.2c0-48.9-33.8-84.6-81.3-84.6C3119,751.9,3085.6,787.7,3085.6,836.5z"/>
	<path class="st2" d="M2823.3,912.2c-19.3,27.3-48.9,43.7-85.1,43.7c-67.7,0-116.1-50.3-116.1-118.9c0-70,48.4-121.3,116.1-121.3
		c36.2,0,65.8,16.9,85.1,44.7V720h38.5v231.7h-38.5V912.2z M2661.7,836.5c0,47.9,33.4,83.2,80.4,83.2c47.5,0,81.3-35.2,81.3-83.2
		c0-48.9-33.8-84.6-81.3-84.6C2695,751.9,2661.7,787.7,2661.7,836.5L2661.7,836.5z"/>
	<path class="st2" d="M2959.2,951.7h-38.1V720h38.1v49.3c18.3-34.3,47.9-53.6,84.6-53.6v43.7c-46.1-6.6-84.6,24.4-84.6,81.8V951.7z"
		/>
	<path class="st2" d="M1742.4,769.3c13.6,8.9,31.8,5.1,40.7-8.5c8.9-13.6,5.1-31.8-8.5-40.7c-0.1-0.1-0.2-0.1-0.3-0.2l-0.8-0.5
		c-9.7-6.1-22-6.1-31.7,0.1l-37.8,24.4L1742.4,769.3z"/>
</g>
</svg>
